# xmcd
# Track frame offsets:
# 150
# 18474
# 36039
# 56028
# 72132
# 93920
# 110349
# 128743
# 144715
# 163470
# 182346
# 197526
# 214613
# 233037
# 255645
# 271445
#
# Disc length: 4215 seconds
# Revision: 0
# Processed by: cddbd v1.5.1PL2 Copyright (c) Steve Scherf et al.
# Submitted via: VisiTrax 2.9.10.228 - For more info visit www.synapsa.com
#
DISCID=e0107510
DTITLE=Raffaele - My Italian Roots CD1
DYEAR=2004
DGENRE=Italiaans
TTITLE0=Storie
TTITLE1=Gente Di Mare
TTITLE2=Piu Bella Cosa
TTITLE3=Per Colpa Di Chi
TTITLE4=Vivo Per Lei
TTITLE5=Cervo A Primavera
TTITLE6=Diavolo In Me
TTITLE7=La Solitudine
TTITLE8=Baila Morena
TTITLE9=Gloria
TTITLE10=Roberta
TTITLE11=Laura Non C'è
TTITLE12=L'ombellico Del Mondo
TTITLE13=La Mia Storia
TTITLE14=Su Di Noi
TTITLE15=E Penso A Te
EXTD=
EXTT0=
EXTT1=
EXTT2=
EXTT3=
EXTT4=
EXTT5=
EXTT6=
EXTT7=
EXTT8=
EXTT9=
EXTT10=
EXTT11=
EXTT12=
EXTT13=
EXTT14=
EXTT15=
PLAYORDER=
